<svg width="13" height="12" viewBox="0 0 13 12" fill="none" xmlns="http://www.w3.org/2000/svg">
<path d="M4.38015 2.8151C4.60039 1.05439 6.20776 -0.194641 7.96902 0.0250651C9.56522 0.22493 10.7409 1.56297 10.7835 3.12272C10.9244 3.78818 11.4576 4.09849 12.3528 3.78483C12.8445 3.61378 12.7015 4.77304 11.5803 5.17741C11.007 5.38389 10.7915 5.32878 10.5159 5.3903L10.4143 5.32878L10.2014 5.22819C10.0196 5.15501 9.82748 5.11017 9.6282 5.09733L9.50808 5.09342C9.18547 5.09342 8.87775 5.17465 8.59988 5.32585L8.48269 5.39616C8.22773 5.56225 8.02972 5.78409 7.88601 6.03776L5.5657 10.0846L5.46902 10.278C5.38389 10.4734 5.33115 10.6816 5.31667 10.8991L5.31277 11.0241L5.32644 11.2604C5.35179 11.4737 5.41455 11.6819 5.51394 11.8805C1.42916 11.6311 -1.06625 9.08658 0.44558 4.64323C0.58234 4.24138 1.13542 4.22615 1.39089 4.5651C2.50609 6.04523 3.85892 5.81023 5.34304 5.52604C4.6394 4.84743 4.24991 3.85937 4.38015 2.8151ZM8.35964 2.59342C8.01058 2.59375 7.72707 2.87715 7.72683 3.22624C7.72721 3.57521 8.01066 3.85872 8.35964 3.85905C8.70878 3.85891 8.99208 3.57532 8.99246 3.22624C8.99221 2.87704 8.70886 2.59357 8.35964 2.59342Z" fill="black"/>
<path d="M7.18929 11.901C7.01113 11.901 6.85599 11.8609 6.72387 11.7809C6.59375 11.7028 6.49266 11.5967 6.4206 11.4626C6.34853 11.3305 6.3125 11.1843 6.3125 11.0242C6.3125 10.87 6.35254 10.7229 6.43261 10.5828L8.75369 6.53515C8.83577 6.38902 8.94386 6.27892 9.07798 6.20485C9.21411 6.13078 9.35723 6.09375 9.50737 6.09375C9.6555 6.09375 9.79663 6.13078 9.93075 6.20485C10.0649 6.27892 10.174 6.38902 10.258 6.53515L12.5791 10.5828C12.6192 10.6528 12.6492 10.7259 12.6692 10.802C12.6892 10.876 12.6992 10.9501 12.6992 11.0242C12.6992 11.1843 12.6632 11.3305 12.5911 11.4626C12.5191 11.5967 12.417 11.7028 12.2849 11.7809C12.1547 11.8609 12.0006 11.901 11.8224 11.901H7.18929Z" fill="#FCBA23"/>
<path d="M9.88468 9.55994C9.87465 9.81075 9.74924 9.93615 9.50847 9.93615C9.26016 9.93615 9.131 9.81075 9.12096 9.55994L9.06453 7.78045C9.05952 7.65504 9.09839 7.55221 9.18116 7.47195C9.26393 7.39169 9.37177 7.35156 9.5047 7.35156C9.63512 7.35156 9.74172 7.39295 9.82449 7.47571C9.90976 7.55597 9.94989 7.65755 9.94487 7.78045L9.88468 9.55994Z" fill="black"/>
<path d="M9.85458 11.1363C9.75928 11.219 9.6439 11.2604 9.50847 11.2604C9.37303 11.2604 9.2564 11.219 9.15859 11.1363C9.06328 11.051 9.01562 10.9419 9.01562 10.809C9.01562 10.6785 9.06328 10.5707 9.15859 10.4854C9.25389 10.4002 9.37052 10.3575 9.50847 10.3575C9.6439 10.3575 9.75928 10.4002 9.85458 10.4854C9.94989 10.5707 9.99754 10.6785 9.99754 10.809C9.99754 10.9419 9.94989 11.051 9.85458 11.1363Z" fill="black"/>
</svg>
