<svg width="70" height="70" viewBox="0 0 70 70" fill="none" xmlns="http://www.w3.org/2000/svg">
<path d="M36 69.7314V36.1074H69.66V69.7314H36ZM52.848 65.8074C60.012 65.8074 65.88 60.0474 65.88 52.9194C65.88 45.7914 60.012 40.0314 52.848 40.0314C45.648 40.0314 39.78 45.7914 39.78 52.9194C39.78 60.0474 45.648 65.8074 52.848 65.8074ZM52.848 43.9194C57.852 43.9194 61.956 47.9154 61.956 52.9194C61.956 57.9234 57.852 61.9554 52.848 61.9554C47.808 61.9554 43.704 57.9234 43.704 52.9194C43.704 47.9154 47.772 43.9194 52.848 43.9194Z" fill="black"/>
<path d="M0 69.6963V69.7323V36.0723H33.66V69.6963H0ZM28.404 44.7843V41.3283H5.256V64.4403H28.404V60.9843H8.712V54.6123H24.192V51.1563H8.712V44.7843H28.404Z" fill="black"/>
<path d="M36 33.6952V0.0351562H69.66V33.6952H36ZM52.848 5.29115H41.256V28.4392H52.848C59.256 28.4032 64.404 23.2552 64.404 16.8832C64.404 10.5112 59.22 5.32715 52.848 5.29115ZM52.848 24.9832H44.712V8.74715H52.848C57.312 8.74715 60.696 12.3832 60.696 16.8472C60.696 21.3472 57.312 24.9832 52.848 24.9832Z" fill="black"/>
<path d="M5.22 28.62H28.152V25.416H18.36V8.928H28.152V5.688H5.22V8.928H15.012V25.416H5.22V28.62ZM0 33.66V0H33.66V33.66H0Z" fill="black"/>
</svg>
