<svg width="13" height="12" viewBox="0 0 13 12" fill="none" xmlns="http://www.w3.org/2000/svg">
<path d="M4.3795 2.81614C4.59978 1.05523 6.20688 -0.194944 7.96837 0.0251224C9.56463 0.224784 10.741 1.5631 10.7838 3.12278C10.9245 3.7888 11.4564 4.09985 12.3522 3.78586C12.844 3.61459 12.7009 4.77405 11.5797 5.17844C10.5898 5.53502 10.6649 5.10498 9.66075 5.85715C9.65478 5.86164 9.64729 5.86545 9.64122 5.86985C12.3656 7.46638 12.2152 11.4069 7.32872 11.8493C2.21125 12.3124 -1.27964 9.71352 0.445907 4.64329C0.583103 4.2422 1.13492 4.22645 1.39024 4.56516C2.50561 6.04605 3.85794 5.81036 5.34239 5.5261C4.63876 4.84743 4.24917 3.86045 4.3795 2.81614ZM8.35899 2.59446C8.0095 2.59446 7.72618 2.87778 7.72618 3.22727C7.72618 3.57676 8.0095 3.86008 8.35899 3.86008C8.70849 3.86008 8.99181 3.57676 8.99181 3.22727C8.99181 2.87778 8.70849 2.59446 8.35899 2.59446Z" fill="black"/>
</svg>
