<svg width="13" height="12" viewBox="0 0 13 12" fill="none" xmlns="http://www.w3.org/2000/svg">
<path d="M10.7881 3.14062C10.9346 3.79429 11.4657 4.09645 12.3535 3.78516C12.8444 3.61529 12.7012 4.77333 11.5811 5.17773C10.5908 5.53456 10.6655 5.10501 9.66113 5.85742C9.65548 5.86167 9.64834 5.86501 9.64258 5.86914C12.3665 7.4658 12.2151 11.4071 7.3291 11.8496C5.53015 12.0123 3.93242 11.795 2.69141 11.2266L10.7881 3.14062ZM11.002 0.710938C11.1268 0.707039 11.2344 0.750169 11.3242 0.839844C11.41 0.925673 11.453 1.03342 11.4531 1.16211C11.4531 1.28699 11.41 1.39262 11.3242 1.47852L1.28125 11.5098C1.19531 11.5996 1.08984 11.6445 0.964844 11.6445C0.835938 11.6445 0.730469 11.5996 0.648438 11.5098C0.558756 11.42 0.513672 11.3124 0.513672 11.1875C0.513792 11.0666 0.558714 10.9608 0.648438 10.8711L1.25977 10.2588L1.25781 10.2568L7.87988 3.63477L7.88184 3.63672L8.76953 2.74902L8.76758 2.74707L10.1768 1.33789L10.1777 1.34082L10.6797 0.839844C10.7695 0.754061 10.8771 0.710938 11.002 0.710938ZM0.446289 4.64355C0.583289 4.24203 1.13625 4.22645 1.3916 4.56543C2.3568 5.84649 3.4989 5.84129 4.75098 5.63281L0.742188 9.6416C-0.0855593 8.43049 -0.270967 6.75119 0.446289 4.64355ZM4.38086 2.81543C4.60128 1.05468 6.20834 -0.194663 7.96973 0.0253906C8.60636 0.105193 9.17424 0.368137 9.63184 0.751953L5.10938 5.27441C4.5557 4.61444 4.26572 3.73743 4.38086 2.81543Z" fill="black"/>
</svg>
